# xmcd CD database file
#
# Track frame offsets:
#	150
#	18300
#	39074
#	63208
#	96372
#	118517
#	143319
#	159867
#	191679
#	211019
#	225053
#	248133
#
# Disc length: 3961 seconds
#
# Revision: 2
# Processed by: cddbd v1.4b41PL1 Copyright (c) Steve Scherf et al.
# Submitted via: Feurio! 1.55ß - http://www.feurio.com
#
DISCID=800f770c,8f0f770c
DTITLE=Charlie Daniels Band - Road Dogs
DYEAR=1900
DGENRE=
TTITLE0=Road Dogs
TTITLE1=Ain't No Law In California
TTITLE2=Even Up The Score
TTITLE3=Across The Line
TTITLE4=The Martyr
TTITLE5=How Much I Love You
TTITLE6=Wild Wild Young Men
TTITLE7=Sidewinder
TTITLE8=Standing In The Rain
TTITLE9=It's About Time
TTITLE10=Sail Away
TTITLE11=Saddle Tramp
EXTD=
EXTT0=
EXTT1=
EXTT2=
EXTT3=
EXTT4=
EXTT5=
EXTT6=
EXTT7=
EXTT8=
EXTT9=
EXTT10=
EXTT11=
PLAYORDER=
